<?xml version="1.0" encoding="utf-8"?>
<!-- Generator: Adobe Illustrator 25.2.1, SVG Export Plug-In . SVG Version: 6.00 Build 0)  -->
<svg version="1.1"
	 id="svg12" xmlns:inkscape="http://www.inkscape.org/namespaces/inkscape" xmlns:sodipodi="http://sodipodi.sourceforge.net/DTD/sodipodi-0.dtd" xmlns:svg="http://www.w3.org/2000/svg"
	 xmlns="http://www.w3.org/2000/svg" xmlns:xlink="http://www.w3.org/1999/xlink" x="0px" y="0px" viewBox="0 0 90 30"
	 style="enable-background:new 0 0 90 30;" xml:space="preserve">
<style type="text/css">
	.st0{fill:none;stroke:#484394;stroke-width:0.5;}
</style>
<sodipodi:namedview  bordercolor="#000000" borderopacity="0.25" id="namedview14" inkscape:deskcolor="#d1d1d1" inkscape:pagecheckerboard="0" inkscape:pageopacity="0.0" inkscape:showpageshadow="2" pagecolor="#ffffff">
	</sodipodi:namedview>
<g>
	<path class="st0" d="M4.1,11.7h3v2.4H1V4.1h3.1V11.7z"/>
	<path class="st0" d="M11.1,4.1v5.6c0,0.5,0.1,0.8,0.3,1.1c0.2,0.3,0.5,0.4,1,0.4c0.4,0,0.8-0.1,1-0.4c0.2-0.3,0.3-0.6,0.3-1.1V4.1
		h3.1v5.6c0,0.9-0.2,1.7-0.6,2.4c-0.4,0.7-0.9,1.2-1.6,1.5s-1.4,0.5-2.3,0.5c-0.8,0-1.6-0.2-2.2-0.5c-0.6-0.3-1.2-0.8-1.5-1.5
		C8.2,11.5,8,10.7,8,9.7V4.1H11.1z"/>
	<path class="st0" d="M18.5,6.5c0.4-0.8,1-1.4,1.7-1.8C20.9,4.3,21.8,4,22.8,4c0.9,0,1.6,0.2,2.3,0.5c0.7,0.3,1.2,0.8,1.7,1.4
		c0.4,0.6,0.7,1.3,0.8,2.1h-3.3c-0.1-0.3-0.4-0.6-0.6-0.8c-0.3-0.2-0.6-0.3-0.9-0.3c-0.5,0-0.9,0.2-1.2,0.6C21.2,7.9,21,8.4,21,9.1
		c0,0.7,0.2,1.2,0.5,1.6c0.3,0.4,0.7,0.6,1.2,0.6c0.4,0,0.7-0.1,0.9-0.3c0.3-0.2,0.5-0.4,0.6-0.8h3.3c-0.1,0.8-0.4,1.5-0.8,2.1
		c-0.4,0.6-1,1-1.7,1.4c-0.7,0.3-1.4,0.5-2.3,0.5c-1,0-1.9-0.2-2.6-0.6c-0.7-0.4-1.3-1-1.7-1.8c-0.4-0.8-0.6-1.6-0.6-2.6
		C17.9,8.1,18.1,7.2,18.5,6.5z"/>
	<path class="st0" d="M35,12.6h-3.3l-0.5,1.5H28l3.6-9.9h3.6l3.6,9.9h-3.3L35,12.6z M34.3,10.2l-0.9-2.8l-0.9,2.8H34.3z"/>
	<path class="st0" d="M40.5,13.3c-0.8-0.6-1.2-1.4-1.3-2.4h3.3c0,0.6,0.3,0.9,0.8,0.9c0.2,0,0.3,0,0.4-0.1c0.1-0.1,0.2-0.2,0.2-0.4
		c0-0.2-0.1-0.4-0.4-0.6c-0.3-0.1-0.6-0.3-1.2-0.5c-0.6-0.2-1.2-0.4-1.6-0.7C40.3,9.3,40,9,39.7,8.6c-0.3-0.4-0.4-0.9-0.4-1.6
		c0-0.6,0.2-1.2,0.5-1.6c0.3-0.5,0.8-0.8,1.4-1C41.7,4.1,42.3,4,43,4c1.2,0,2.2,0.3,2.9,0.8c0.7,0.6,1.1,1.3,1.1,2.4h-3.3
		c0-0.3-0.1-0.5-0.2-0.6c-0.1-0.1-0.3-0.2-0.5-0.2c-0.1,0-0.2,0-0.3,0.1c-0.1,0.1-0.1,0.2-0.1,0.4c0,0.2,0.1,0.4,0.4,0.6
		c0.2,0.1,0.6,0.3,1.2,0.5c0.6,0.2,1.1,0.5,1.5,0.7c0.4,0.2,0.8,0.5,1.1,0.9c0.3,0.4,0.4,0.9,0.4,1.4c0,0.6-0.1,1.2-0.4,1.6
		c-0.3,0.5-0.7,0.9-1.3,1.1c-0.6,0.3-1.2,0.4-2,0.4C42.2,14.2,41.2,13.9,40.5,13.3z"/>
	<path class="st0" d="M53.7,16.8L50.4,0.7h3l3.4,16.1H53.7z"/>
	<path class="st0" d="M67.4,4.8c0.8,0.4,1.4,1,1.8,1.8c0.4,0.7,0.6,1.6,0.6,2.5c0,0.9-0.2,1.8-0.6,2.5c-0.4,0.8-1,1.4-1.8,1.8
		c-0.8,0.4-1.7,0.7-2.7,0.7h-4.1V4.1h4.1C65.7,4.1,66.6,4.4,67.4,4.8z M66.1,10.7c0.4-0.4,0.6-0.9,0.6-1.6c0-0.7-0.2-1.3-0.6-1.6
		c-0.4-0.4-1-0.6-1.7-0.6h-0.7v4.4h0.7C65.1,11.3,65.7,11.1,66.1,10.7z"/>
	<path class="st0" d="M74.1,6.6v1.2h3.1v2.3h-3.1v1.4h3.5v2.5H71V4.1h6.6v2.5H74.1z"/>
	<path class="st0" d="M88.7,4.1l-3.3,9.9h-4l-3.3-9.9h3.3l2,6.8l2-6.8H88.7z"/>
</g>
<g>
	<path d="M33.4,22.2c-0.1-0.2-0.3-0.4-0.6-0.5c-0.2-0.1-0.5-0.2-0.9-0.2c-0.6,0-1,0.2-1.4,0.6c-0.3,0.4-0.5,0.9-0.5,1.5
		c0,0.7,0.2,1.2,0.5,1.6s0.9,0.6,1.5,0.6c0.4,0,0.8-0.1,1.1-0.3c0.3-0.2,0.5-0.5,0.7-0.9h-2.2v-1.3h3.8v1.6
		c-0.1,0.4-0.4,0.8-0.7,1.2c-0.3,0.4-0.7,0.7-1.2,0.9s-1,0.3-1.6,0.3c-0.7,0-1.3-0.2-1.9-0.5c-0.6-0.3-1-0.7-1.3-1.3
		c-0.3-0.6-0.5-1.2-0.5-1.9s0.2-1.3,0.5-1.9c0.3-0.6,0.7-1,1.3-1.3c0.6-0.3,1.2-0.5,1.9-0.5c0.9,0,1.6,0.2,2.2,0.6
		c0.6,0.4,1,1,1.2,1.7H33.4z"/>
	<path d="M41.7,23.4c-0.2,0.3-0.5,0.6-0.9,0.8c-0.4,0.2-0.9,0.3-1.5,0.3h-1.1v2.6h-1.8v-7.2h2.8c0.6,0,1.1,0.1,1.5,0.3
		c0.4,0.2,0.7,0.5,0.9,0.8c0.2,0.3,0.3,0.8,0.3,1.2C42,22.7,41.9,23,41.7,23.4z M39.9,22.9c0.2-0.2,0.2-0.4,0.2-0.7
		c0-0.3-0.1-0.5-0.2-0.7c-0.2-0.2-0.4-0.2-0.8-0.2h-1v1.8h1C39.5,23.1,39.8,23.1,39.9,22.9z"/>
	<path d="M48.1,19.9v1.4h-1.9v5.8h-1.8v-5.8h-1.9v-1.4H48.1z"/>
	<path d="M57.8,25.9h-2.7l-0.4,1.3h-1.8l2.6-7.2h2l2.6,7.2h-1.9L57.8,25.9z M57.3,24.5l-0.9-2.6l-0.9,2.6H57.3z"/>
	<path d="M63.4,21.6c0.3-0.2,0.7-0.3,1-0.3v1.9h-0.5c-0.4,0-0.8,0.1-1,0.3c-0.2,0.2-0.3,0.5-0.3,1v2.7h-1.8v-5.7h1.8v1
		C62.8,22,63.1,21.8,63.4,21.6z"/>
	<path d="M68.5,25.6v1.5h-0.9c-0.6,0-1.1-0.2-1.5-0.5c-0.4-0.3-0.5-0.8-0.5-1.5v-2.3h-0.7v-1.5h0.7V20h1.8v1.4h1.2v1.5h-1.2v2.3
		c0,0.2,0,0.3,0.1,0.4s0.2,0.1,0.4,0.1H68.5z"/>
	<path d="M71.2,19.5v7.6h-1.8v-7.6H71.2z"/>
	<path d="M72.6,20.5c-0.2-0.2-0.3-0.4-0.3-0.7c0-0.3,0.1-0.5,0.3-0.7s0.4-0.3,0.8-0.3c0.3,0,0.5,0.1,0.7,0.3s0.3,0.4,0.3,0.7
		c0,0.3-0.1,0.5-0.3,0.7s-0.4,0.3-0.7,0.3C73,20.8,72.8,20.7,72.6,20.5z M74.2,21.4v5.7h-1.8v-5.7H74.2z"/>
	<path d="M75.5,22.7c0.2-0.4,0.5-0.8,0.9-1c0.4-0.2,0.8-0.4,1.3-0.4c0.4,0,0.7,0.1,1,0.2c0.3,0.2,0.6,0.4,0.7,0.6v-2.7h1.8v7.6h-1.8
		v-0.8c-0.2,0.3-0.4,0.5-0.7,0.7c-0.3,0.2-0.7,0.2-1.1,0.2c-0.5,0-0.9-0.1-1.3-0.4c-0.4-0.2-0.7-0.6-0.9-1c-0.2-0.4-0.3-1-0.3-1.6
		C75.1,23.7,75.3,23.2,75.5,22.7z M79.1,23.2c-0.2-0.3-0.5-0.4-0.9-0.4c-0.3,0-0.6,0.1-0.9,0.4c-0.2,0.2-0.4,0.6-0.4,1
		c0,0.4,0.1,0.8,0.4,1c0.2,0.3,0.5,0.4,0.9,0.4c0.3,0,0.6-0.1,0.9-0.4c0.2-0.3,0.4-0.6,0.4-1S79.3,23.5,79.1,23.2z"/>
	<path d="M83.6,26.9c-0.4-0.2-0.8-0.6-1.1-1s-0.4-1-0.4-1.6c0-0.6,0.1-1.1,0.4-1.6c0.3-0.4,0.6-0.8,1.1-1c0.5-0.2,1-0.4,1.5-0.4
		s1.1,0.1,1.5,0.4c0.5,0.2,0.8,0.6,1.1,1c0.3,0.4,0.4,1,0.4,1.6s-0.1,1.1-0.4,1.6c-0.3,0.4-0.6,0.8-1.1,1c-0.5,0.2-1,0.4-1.5,0.4
		S84,27.1,83.6,26.9z M85.9,25.3c0.2-0.2,0.4-0.6,0.4-1.1s-0.1-0.8-0.3-1.1c-0.2-0.2-0.5-0.4-0.8-0.4c-0.3,0-0.6,0.1-0.9,0.4
		c-0.2,0.2-0.3,0.6-0.3,1.1c0,0.5,0.1,0.8,0.3,1.1c0.2,0.2,0.5,0.4,0.8,0.4C85.4,25.7,85.7,25.6,85.9,25.3z"/>
</g>
</svg>
